<svg xmlns="http://www.w3.org/2000/svg" xmlns:ev="http://www.w3.org/2001/xml-events" xmlns:xlink="http://www.w3.org/1999/xlink" width="10.688in" height="386.517" class="st11" color-interpolation-filters="sRGB" viewBox="0 0 769.539 289.888" xml:space="preserve"><style type="text/css">.st1,.st2{fill:#f2f2f2;stroke:#c7c8c8;stroke-width:.25}.st2{fill:#4672c4}.st3,.st4{fill:#feffff;font-family:Calibri;font-size:.833336em}.st4{font-size:1.00001em}.st5{fill:#4672c4;fill-opacity:0}.st6{stroke:#c7c8c8;stroke-width:.25;visibility:hidden}.st7{fill:#4672c4;font-family:Calibri;font-size:.833336em}.st8{marker-end:url(#mrkr12-49);stroke-dasharray:7,5;stroke-linecap:round;stroke-linejoin:round;stroke-width:1}.st10,.st8,.st9{stroke:#4672c4}.st9{fill:#4672c4;fill-opacity:1;stroke-opacity:1;stroke-width:.28409090909091}.st10{marker-end:url(#mrkr14-90);stroke-dasharray:7,5;stroke-linecap:round;stroke-linejoin:round;stroke-width:1}.st11{fill:none;fill-rule:evenodd;font-size:12px;overflow:visible;stroke-linecap:square;stroke-miterlimit:3}</style><defs id="Markers"><g id="lend12"><path d="M 3 1 L 0 0 L 3 -1" style="stroke-linecap:round;stroke-linejoin:round;fill:none"/></g><marker id="mrkr12-49" class="st9" markerUnits="strokeWidth" orient="auto" overflow="visible"><use transform="scale(-3.52,-3.52)" xlink:href="#lend12"/></marker><g id="lend14"><path d="M 3 -1 L 0 0 L 3 1 L 3 -1" style="stroke-linecap:round;stroke-linejoin:round;fill:none"/></g><marker id="mrkr14-90" class="st9" markerUnits="strokeWidth" orient="auto" overflow="visible" refX="-10.56"><use transform="scale(-3.52,-3.52)" xlink:href="#lend14"/></marker></defs><g><title>Blobs Intefaces</title><g id="group1-1" transform="translate(283.573,-111.235)"><title>Interface</title><desc>IBlobStorage</desc><g id="shape2-2"><title>Sheet.2</title><path d="M0 289.89 L184.25 289.89 L184.25 236.2 L0 236.2 L0 289.89 Z" class="st1"/></g><g id="shape3-4" transform="translate(0,-53.6838)"><title>Sheet.3</title><path d="M0 289.89 L184.25 289.89 L184.25 246.98 L0 246.98 L0 289.89 Z" class="st2"/></g><g id="shape4-6" transform="translate(0,-80.5875)"><title>Sheet.4</title><desc>&lt;&lt;Interface&gt;&gt;</desc><text x="4" y="286.89" class="st3">&lt;&lt;Interface&gt;&gt;</text></g><g id="shape5-8" transform="translate(175.748,-96.5912)"><title>Sheet.5</title><desc>parameter</desc></g><g id="shape1-9"><text x="4" y="224.1" class="st4">IBlobStorage</text></g></g><g id="shape6-11" transform="translate(286.407,-150.08)"><title>Member</title><desc>-ListAsync</desc><rect width="178.583" height="12.004" x="0" y="277.884" class="st5"/><rect width="178.583" height="12.004" x="0" y="277.884" class="st6"/><text x="8.5" y="286.89" class="st7">-ListAsync</text></g><g id="shape8-15" transform="translate(286.407,-138.077)"><title>Member.8</title><desc>-WriteAsync</desc><rect width="178.583" height="12.004" x="0" y="277.884" class="st5"/><rect width="178.583" height="12.004" x="0" y="277.884" class="st6"/><text x="8.5" y="286.89" class="st7">-WriteAsync</text></g><g id="shape9-19" transform="translate(286.407,-126.073)"><title>Member.9</title><desc>-OpenReadAsync</desc><rect width="178.583" height="12.004" x="0" y="277.884" class="st5"/><rect width="178.583" height="12.004" x="0" y="277.884" class="st6"/><text x="8.5" y="286.89" class="st7">-OpenReadAsync</text></g><g id="shape10-23" transform="translate(286.407,-114.07)"><title>Member.10</title><desc>...</desc><rect width="178.583" height="12.004" x="0" y="277.884" class="st5"/><rect width="178.583" height="12.004" x="0" y="277.884" class="st6"/><text x="8.5" y="286.89" class="st7">...</text></g><g id="group11-27" transform="translate(567.037,-110.985)"><title>Class.66</title><desc>BlobStorageExtensions</desc><g id="shape12-28"><title>Sheet.12</title><path d="M0 289.89 L184.25 289.89 L184.25 224.2 L0 224.2 L0 289.89 Z" class="st1"/></g><g id="shape13-30" transform="translate(0,-65.6875)"><title>Sheet.13</title><path d="M0 289.89 L184.25 289.89 L184.25 258.48 L0 258.48 L0 289.89 Z" class="st2"/></g><g id="shape15-32" transform="translate(175.748,-97.0912)"><title>Sheet.15</title><desc>parameter</desc></g><g id="shape11-33"><text x="4" y="212.1" class="st4">BlobStorageExtensions</text></g></g><g id="shape16-35" transform="translate(569.872,-161.834)"><title>Member.16</title><desc>-ReadTextAsync</desc><rect width="178.583" height="12.004" x="0" y="277.884" class="st5"/><rect width="178.583" height="12.004" x="0" y="277.884" class="st6"/><text x="8.5" y="286.89" class="st7">-ReadTextAsync</text></g><g id="shape18-39" transform="translate(569.872,-149.83)"><title>Member.18</title><desc>-WriteTextAsync</desc><rect width="178.583" height="12.004" x="0" y="277.884" class="st5"/><rect width="178.583" height="12.004" x="0" y="277.884" class="st6"/><text x="8.5" y="286.89" class="st7">-WriteTextAsync</text></g><g id="group19-43" transform="translate(567.037,-152.444)"><title>Dependency</title><g id="shape19-44"><path d="M0 282.8 L-99.21 282.8" class="st8"/></g></g><g id="shape24-50" transform="translate(569.872,-137.827)"><title>Member.24</title><desc>-WriteJsonAsync</desc><rect width="178.583" height="12.004" x="0" y="277.884" class="st5"/><rect width="178.583" height="12.004" x="0" y="277.884" class="st6"/><text x="8.5" y="286.89" class="st7">-WriteJsonAsync</text></g><g id="shape25-54" transform="translate(569.872,-125.823)"><title>Member.25</title><desc>-ReadJsonAsync</desc><rect width="178.583" height="12.004" x="0" y="277.884" class="st5"/><rect width="178.583" height="12.004" x="0" y="277.884" class="st6"/><text x="8.5" y="286.89" class="st7">-ReadJsonAsync</text></g><g id="shape26-58" transform="translate(569.872,-113.82)"><title>Member.26</title><desc>...</desc><rect width="178.583" height="12.004" x="0" y="277.884" class="st5"/><rect width="178.583" height="12.004" x="0" y="277.884" class="st6"/><text x="8.5" y="286.89" class="st7">...</text></g><g id="group27-62" transform="translate(18.25,-187.05)"><title>Interface.27</title><desc>IAzureBlobStorage</desc><g id="shape28-63"><title>Sheet.28</title><path d="M0 289.89 L184.25 289.89 L184.25 248.21 L0 248.21 L0 289.89 Z" class="st1"/></g><g id="shape29-65" transform="translate(0,-41.6802)"><title>Sheet.29</title><path d="M0 289.89 L184.25 289.89 L184.25 246.98 L0 246.98 L0 289.89 Z" class="st2"/></g><g id="shape30-67" transform="translate(0,-68.5839)"><title>Sheet.30</title><desc>&lt;&lt;Interface&gt;&gt;</desc><text x="4" y="286.89" class="st3">&lt;&lt;Interface&gt;&gt;</text></g><g id="shape31-69" transform="translate(175.748,-84.5875)"><title>Sheet.31</title><desc>parameter</desc></g><g id="shape27-70"><text x="4" y="236.11" class="st4">IAzureBlobStorage</text></g></g><g id="shape32-72" transform="translate(21.0846,-213.892)"><title>Member.32</title><desc>-AcquireLeaseAsync</desc><rect width="178.583" height="12.004" x="0" y="277.884" class="st5"/><rect width="178.583" height="12.004" x="0" y="277.884" class="st6"/><text x="8.5" y="286.89" class="st7">-AcquireLeaseAsync</text></g><g id="shape33-76" transform="translate(21.0846,-201.888)"><title>Member.33</title><desc>-BreakLeaseAsync</desc><rect width="178.583" height="12.004" x="0" y="277.884" class="st5"/><rect width="178.583" height="12.004" x="0" y="277.884" class="st6"/><text x="8.5" y="286.89" class="st7">-BreakLeaseAsync</text></g><g id="shape35-80" transform="translate(21.0846,-189.885)"><title>Member.35</title><desc>...</desc><rect width="178.583" height="12.004" x="0" y="277.884" class="st5"/><rect width="178.583" height="12.004" x="0" y="277.884" class="st6"/><text x="8.5" y="286.89" class="st7">...</text></g><g id="group36-84" transform="translate(202.502,-229.344)"><title>Interface Realization</title><g id="shape36-85"><path d="M0 289.89 L173.2 289.89 L173.2 300.85" class="st10"/></g></g><g id="group41-91" transform="translate(18.25,-18.25)"><title>Interface.41</title><desc>IAwsS3BlobStorage</desc><g id="shape42-92"><title>Sheet.42</title><path d="M0 289.89 L184.25 289.89 L184.25 248.21 L0 248.21 L0 289.89 Z" class="st1"/></g><g id="shape43-94" transform="translate(0,-41.6802)"><title>Sheet.43</title><path d="M0 289.89 L184.25 289.89 L184.25 246.98 L0 246.98 L0 289.89 Z" class="st2"/></g><g id="shape44-96" transform="translate(0,-68.5839)"><title>Sheet.44</title><desc>&lt;&lt;Interface&gt;&gt;</desc><text x="4" y="286.89" class="st3">&lt;&lt;Interface&gt;&gt;</text></g><g id="shape45-98" transform="translate(175.748,-84.5875)"><title>Sheet.45</title><desc>parameter</desc></g><g id="shape41-99"><text x="4" y="236.11" class="st4">IAwsS3BlobStorage</text></g></g><g id="shape46-101" transform="translate(21.0846,-45.0919)"><title>Member.46</title><desc>-AcquireLeaseAsync</desc><rect width="178.583" height="12.004" x="0" y="277.884" class="st5"/><rect width="178.583" height="12.004" x="0" y="277.884" class="st6"/><text x="8.5" y="286.89" class="st7">-AcquireLeaseAsync</text></g><g id="shape47-105" transform="translate(21.0846,-33.0883)"><title>Member.47</title><desc>-BreakLeaseAsync</desc><rect width="178.583" height="12.004" x="0" y="277.884" class="st5"/><rect width="178.583" height="12.004" x="0" y="277.884" class="st6"/><text x="8.5" y="286.89" class="st7">-BreakLeaseAsync</text></g><g id="shape48-109" transform="translate(21.0846,-21.0846)"><title>Member.48</title><desc>...</desc><rect width="178.583" height="12.004" x="0" y="277.884" class="st5"/><rect width="178.583" height="12.004" x="0" y="277.884" class="st6"/><text x="8.5" y="286.89" class="st7">...</text></g><g id="group50-113" transform="translate(202.502,-60.5438)"><title>Interface Realization.50</title><g id="shape50-114"><path d="M0 289.89 L173.2 289.89 L173.2 249.76" class="st10"/></g></g></g></svg>