<svg xmlns="http://www.w3.org/2000/svg" xmlns:ev="http://www.w3.org/2001/xml-events" xmlns:xlink="http://www.w3.org/1999/xlink" width="771.223" height="505.899" class="st15" color-interpolation-filters="sRGB" viewBox="0 0 578.417 379.424" xml:space="preserve"><style type="text/css">.st1{fill:#4672c4;stroke:#c7c8c8;stroke-width:.25}.st2{stroke:#4672c4;stroke-dasharray:7,5;stroke-linecap:round;stroke-linejoin:round;stroke-width:1}.st3{fill:#feffff;font-family:Calibri;font-size:1.00001em;font-weight:700}.st4{fill:#4672c4;stroke-linecap:round;stroke-linejoin:round;stroke-width:1}.st4,.st5,.st6{stroke:#4672c4}.st5{marker-end:url(#mrkr4-36);stroke-linecap:round;stroke-linejoin:round;stroke-width:1}.st6{fill:#4672c4;fill-opacity:1;stroke-opacity:1;stroke-width:.23584905660377}.st7{fill:#fff;stroke:none;stroke-linecap:butt;stroke-width:7.2}.st8{fill:#3c63ac;font-family:Calibri;font-size:.666664em}.st9{fill:#feffff;font-family:Consolas;font-size:.791656em}.st10,.st11{stroke:#3c63ac;stroke-width:.75}.st10{fill:#4672c4;fill-opacity:0}.st11{fill:#fff}.st12{fill:#3d64ac;font-family:Calibri;font-size:.666664em;font-weight:700}.st13{marker-end:url(#mrkr3-74);stroke:#4672c4;stroke-dasharray:7,5;stroke-linecap:round;stroke-linejoin:round;stroke-width:1}.st14{fill:#fff;stroke:none;stroke-linecap:butt}.st15{fill:none;fill-rule:evenodd;font-size:12px;overflow:visible;stroke-linecap:square;stroke-miterlimit:3}</style><defs id="Markers"><g id="lend4"><path d="M 2 1 L 0 0 L 2 -1 L 2 1" style="stroke:none"/></g><marker id="mrkr4-36" class="st6" markerUnits="strokeWidth" orient="auto" overflow="visible" refX="-8.48"><use transform="scale(-4.24,-4.24)" xlink:href="#lend4"/></marker><g id="lend3"><path d="M 2 1 L 0 0 L 2 -1" style="stroke-linecap:round;stroke-linejoin:round;fill:none"/></g><marker id="mrkr3-74" class="st6" markerUnits="strokeWidth" orient="auto" overflow="visible"><use transform="scale(-4.24,-4.24)" xlink:href="#lend3"/></marker></defs><g><title>Sinks</title><g id="group6-1" transform="translate(18.25,-298.103)"><title>Actor lifeline</title><desc>Library User</desc><g id="shape7-2" transform="translate(14.1732,0)"><title>Sheet.7</title><rect width="51.024" height="25.512" x="0" y="353.913" class="st1"/></g><g id="shape8-4" transform="translate(31.1811,-29.0551)"><title>Sheet.8</title><path d="M3.4 379.42 L3.4 362.42 L3.4 369.22 L0 369.22 L0 355.61 L1.7 353.91 L15.31 353.91 L17.01 355.61 L17.01 369.22 L13.61 369.22 L13.61 362.42 L13.61 379.42 L8.5 379.42 L8.5 365.82 L8.5 379.42 L3.4 379.42 ZM11.91 348.81 A3.40157 3.40157 -180 1 0 5.1 348.81 A3.40157 3.40157 -180 1 0 11.91 348.81 Z" class="st1"/></g><g id="shape9-6" transform="translate(26.4567,280.103)"><title>Sheet.9</title></g><g id="shape10-8" transform="translate(419.109,379.424) rotate(90)"><title>Sheet.10</title><path d="M0 379.42 L262.49 379.42" class="st2"/></g><g id="shape6-11"><rect width="79.37" height="25.512" x="0" y="353.913" class="st1"/><text x="9.56" y="370.27" class="st3">Library User</text></g></g><g id="group16-14" transform="translate(134.47,-298.103)"><title>Object lifeline</title><desc>Storage.Net</desc><g id="shape17-15" transform="translate(14.1732,0)"><title>Sheet.17</title><rect width="51.024" height="25.512" x="0" y="353.913" class="st1"/></g><g id="shape18-17" transform="translate(31.1811,-29.0551)"><title>Sheet.18</title><path d="M8.5 379.42 a0 0 0 1 1 0 0 a0 0 0 1 1 0 0 Z" class="st1"/></g><g id="shape19-19" transform="translate(26.4567,280.103)"><title>Sheet.19</title></g><g id="shape20-21" transform="translate(419.109,379.424) rotate(90)"><title>Sheet.20</title><path d="M0 379.42 L262.49 379.42" class="st2"/></g><g id="shape16-24"><rect width="79.37" height="25.512" x="0" y="353.913" class="st1"/><text x="9.93" y="370.27" class="st3">Storage.Net</text></g></g><g id="shape21-27" transform="translate(-317.237,315.321) rotate(-90)"><title>Activation</title><rect width="216" height="8.504" x="0" y="370.92" class="st4"/></g><g id="shape22-29" transform="translate(-201.017,315.321) rotate(-90)"><title>Activation.22</title><rect width="216" height="8.504" x="0" y="370.92" class="st4"/></g><g id="shape23-31" transform="translate(62.187,-273.017)"><title>Message.74</title><desc>write data</desc><path d="M0 372.34 L99.24 372.34" class="st5"/><rect width="33.359" height="9.6" x="37.179" y="367.538" class="st7"/><text x="37.18" y="374.74" class="st8">write data</text></g><g id="group24-39" transform="translate(250.691,-298.103)"><title>Object lifeline.24</title><desc>RecyclableMemoryStreamManager</desc><g id="shape25-40" transform="translate(60.9449,0)"><title>Sheet.25</title><rect width="51.024" height="25.512" x="0" y="353.913" class="st1"/></g><g id="shape26-42" transform="translate(77.9528,-29.0551)"><title>Sheet.26</title><path d="M8.5 379.42 a0 0 0 1 1 0 0 a0 0 0 1 1 0 0 Z" class="st1"/></g><g id="shape27-44" transform="translate(57.6378,280.103)"><title>Sheet.27</title></g><g id="shape28-46" transform="translate(465.881,379.424) rotate(90)"><title>Sheet.28</title><path d="M0 379.42 L262.49 379.42" class="st2"/></g><g id="shape24-49"><rect width="172.913" height="25.512" x="0" y="353.913" class="st1"/><text x="10.72" y="370.27" class="st9">RecyclableMemoryStreamManager</text></g></g><g id="group31-52" transform="translate(80.6122,-90.7516)"><title>Optional fragment</title><g id="shape31-53"><rect width="479.055" height="169.084" x="0" y="210.34" class="st10"/></g><g id="shape32-55" transform="translate(0,-151.481)"><title>Sheet.32</title><desc>opt</desc><path d="M0 379.42 L56.91 379.42 L64 372.34 L64 361.82 L0 361.82 L0 379.42 Z" class="st11"/><text x="4" y="373.02" class="st12">opt</text></g><g id="shape33-58" transform="translate(0,-133.877)"><title>Sheet.33</title><desc>has transform sink(s)</desc><text x="4" y="373.02" class="st8">has transform sink(s)</text></g></g><g id="shape34-60" transform="translate(178.407,-237.017)"><title>Message.74.34</title><desc>request new memory stream</desc><path d="M0 372.34 L146.01 372.34" class="st5"/><rect width="94.483" height="9.6" x="30.003" y="367.538" class="st7"/><text x="30" y="374.74" class="st8">request new memory stream</text></g><g id="shape35-67" transform="translate(-38.0247,279.321) rotate(-90)"><title>Activation.35</title><rect width="144" height="8.504" x="0" y="370.92" class="st4"/></g><g id="shape36-69" transform="translate(332.896,-219.017)"><title>Return Message</title><desc>create or return pooled</desc><path d="M0 372.34 L-154.49 372.34" class="st13"/><rect width="76.382" height="9.6" x="-115.435" y="367.538" class="st14"/><text x="-115.44" y="374.74" class="st8">create or return pooled</text></g><g id="shape37-77" transform="translate(171.321,-208.103)"><title>Self Message</title><desc>transform &amp; write to memory stream</desc><path d="M7.09 379.42 L25.09 379.42 L25.09 415.42 L15.57 415.42" class="st5"/><rect width="121.065" height="9.6" x="-53.446" y="392.625" class="st7"/><text x="-53.45" y="399.82" class="st8">transform &amp; write to memory stream</text></g><g id="group38-84" transform="translate(460.455,-298.103)"><title>Object lifeline.38</title><desc>Cloud Storage</desc><g id="shape39-85" transform="translate(14.1732,0)"><title>Sheet.39</title><rect width="51.024" height="25.512" x="0" y="353.913" class="st1"/></g><g id="shape40-87" transform="translate(31.1811,-29.0551)"><title>Sheet.40</title><path d="M8.5 379.42 a0 0 0 1 1 0 0 a0 0 0 1 1 0 0 Z" class="st1"/></g><g id="shape41-89" transform="translate(26.4567,280.103)"><title>Sheet.41</title></g><g id="shape42-91" transform="translate(419.109,379.424) rotate(90)"><title>Sheet.42</title><path d="M0 379.42 L262.49 379.42" class="st2"/></g><g id="shape38-94"><rect width="79.37" height="25.512" x="0" y="353.913" class="st1"/><text x="4.91" y="370.27" class="st3">Cloud Storage</text></g></g><g id="shape43-97" transform="translate(124.967,261.321) rotate(-90)"><title>Activation.43</title><rect width="18" height="8.504" x="0" y="370.92" class="st4"/></g><g id="shape44-99" transform="translate(178.407,-143.19)"><title>Message.74.44</title><desc>write from memory stream</desc><path d="M0 386.51 L309 386.51" class="st5"/><rect width="88.46" height="9.6" x="114.51" y="381.711" class="st7"/><text x="114.51" y="388.91" class="st8">write from memory stream</text></g><g id="shape45-106" transform="translate(178.407,-93.0169)"><title>Message.74.45</title><desc>reclaim</desc><path d="M0 372.34 L146.01 372.34" class="st5"/><rect width="24.046" height="9.6" x="65.221" y="367.538" class="st14"/><text x="65.22" y="374.74" class="st8">reclaim</text></g><g id="shape46-113" transform="translate(169.904,-75.0169)"><title>Return Message.46</title><desc>result</desc><path d="M0 372.34 L-107.72 372.34" class="st13"/><rect width="18.617" height="9.6" x="-63.167" y="367.538" class="st7"/><text x="-63.17" y="374.74" class="st8">result</text></g></g></svg>