<svg xmlns="http://www.w3.org/2000/svg" xmlns:ev="http://www.w3.org/2001/xml-events" xmlns:xlink="http://www.w3.org/1999/xlink" width="833.169" height="172.969" class="st14" color-interpolation-filters="sRGB" viewBox="0 0 624.876 129.726" xml:space="preserve"><style type="text/css">.st1{fill:#b0c2e3;stroke:#31528f;stroke-width:.75}.st2{fill:#3c63ac}.st3{fill:#feffff;font-family:Calibri;font-size:1.00001em;font-stretch:semi-expanded}.st4{fill:#4672c4;stroke:#c7c8c8;stroke-width:.25}.st5{fill:#feffff;font-family:Calibri;font-size:1.00001em}.st6{fill:#668ace}.st7{stroke:#c7c8c8;stroke-width:.24}.st8{fill:#4672c4}.st9{stroke:none;stroke-width:.25}.st10,.st11,.st12{stroke:#c8c8c8;stroke-width:.25}.st11,.st12{fill:#4672c4;stroke:none}.st12{fill:#fff;stroke-linecap:butt;stroke-width:7.2}.st13{fill:#4672c4;font-family:Calibri;font-size:.666664em}.st14{fill:none;fill-rule:evenodd;font-size:12px;overflow:visible;stroke-linecap:square;stroke-miterlimit:3}</style><g><title>Types</title><g id="group489-1" transform="translate(18.75,-20.8346)"><title>Banner</title><g id="group490-2"><title>Sheet.490</title><g id="shape491-3" transform="translate(2.83465,2.83465)"><title>Sheet.491</title></g><g id="shape490-5"><path d="M0 129.73 L108.39 129.73 L216.79 129.73 L216.79 39.58 L108.39 39.58 L0 39.58 L0 129.73 Z" class="st1"/></g></g><g id="group492-7" transform="translate(0,-64.6299)"><title>Sheet.492</title><desc>Blob Storage</desc><g id="shape493-8" transform="translate(0,12.3809)"><title>Sheet.493</title><path d="M0.38 129.73 A690.292 690.292 0 0 1 216.41 129.73 L216.41 125.47 A690.292 690.292 -180 0 0 0.37 125.47 L0.37 129.73 Z" class="st2"/></g><g id="shape492-11"><path d="M-0 138.23 A695.064 695.064 0 0 1 216.79 138.23 L216.79 104.21 L0 104.21 L0 138.23 Z" class="st2"/><text x="74.27" y="120.57" class="st3">Blob Storage</text></g></g></g><g id="group499-15" transform="translate(269.288,-24.0736)"><title>Banner.499</title><g id="group500-16"><title>Sheet.500</title><g id="shape501-17" transform="translate(2.83465,2.83465)"><title>Sheet.501</title></g><g id="shape500-19"><path d="M0 129.73 L167.38 129.73 L334.75 129.73 L334.75 44.69 L167.38 44.69 L0 44.69 L0 129.73 Z" class="st1"/></g></g><g id="group502-21" transform="translate(0,-59.5276)"><title>Sheet.502</title><desc>Messaging</desc><g id="shape503-22" transform="translate(0,12.3809)"><title>Sheet.503</title><path d="M0.37 129.73 A1644.06 1644.06 0 0 1 334.38 129.73 L334.38 125.47 A1644.06 1644.06 -180 0 0 0.37 125.47 L0.37 129.73 Z" class="st2"/></g><g id="shape502-25"><path d="M0 138.23 A1651.43 1651.43 0 0 1 334.75 138.23 L334.75 104.21 L0 104.21 L0 138.23 Z" class="st2"/><text x="138.93" y="120.57" class="st3">Messaging</text></g></g></g><g id="shape444-29" transform="translate(35.7579,-37.8425)"><title>Sheet.444</title><desc>blob</desc><rect width="31.181" height="30.614" x="0" y="99.112" class="st4"/><text x="4.74" y="118.02" class="st5">blob</text></g><g id="shape445-32" transform="translate(85.9311,-37.8425)"><title>Sheet.445</title><desc>blob</desc><rect width="31.181" height="30.614" x="0" y="99.112" class="st4"/><text x="4.74" y="118.02" class="st5">blob</text></g><g id="shape446-35" transform="translate(136.104,-37.8425)"><title>Sheet.446</title><desc>blob</desc><rect width="31.181" height="30.614" x="0" y="99.112" class="st4"/><text x="4.74" y="118.02" class="st5">blob</text></g><g id="shape447-38" transform="translate(186.278,-37.8425)"><title>Sheet.447</title><desc>blob</desc><rect width="31.181" height="30.614" x="0" y="99.112" class="st4"/><text x="4.74" y="118.02" class="st5">blob</text></g><g id="shape470-41" transform="translate(354.327,-41.0815)"><title>Message</title><path d="M0 129.73 L42.52 129.73 L42.52 104.21 L0 104.21 L0 129.73 Z" class="st6"/><path d="M0 129.73 L42.52 129.73 L42.52 104.21 L0 104.21 L0 129.73" class="st7"/><path d="M0 104.21 L21.26 116.97 L42.52 104.21" class="st7"/></g><g id="group472-45" transform="translate(286.296,-34.6149)"><title>1-D single, open</title><desc>producer</desc><g id="shape473-46"><title>Sheet.473</title><path d="M-0.75 121.18 L51.25 121.18 L51.25 129.73 L59.79 112.63 L51.25 95.53 L51.25 104.08 L-0.75 104.08 L-0.75 121.18 Z" class="st8"/><path d="M-0.75 121.18 L51.25 121.18 L51.25 129.73 L59.79 112.63 L51.25 95.53 L51.25 104.08 L-0.75 104.08" class="st9"/></g><g id="shape474-49"><title>Sheet.474</title><path d="M0 121.18 L51.25 121.18 L51.25 129.73 L59.79 112.63 L51.25 95.53 L51.25 104.08 L0 104.08" class="st10"/></g><g id="shape475-52" transform="translate(-0.847933,-8.79823)"><title>Sheet.475</title><rect width=".5" height="16.596" x="0" y="113.13" class="st11"/></g><g id="shape472-54"><rect width="29.769" height="9.6" x="15.012" y="107.83" class="st12"/><text x="15.01" y="115.03" class="st13">producer</text></g></g><g id="shape476-57" transform="translate(413.855,-41.0815)"><title>Message.476</title><path d="M0 129.73 L42.52 129.73 L42.52 104.21 L0 104.21 L0 129.73 Z" class="st6"/><path d="M0 129.73 L42.52 129.73 L42.52 104.21 L0 104.21 L0 129.73" class="st7"/><path d="M0 104.21 L21.26 116.97 L42.52 104.21" class="st7"/></g><g id="shape477-61" transform="translate(473.382,-41.0815)"><title>Message.477</title><path d="M0 129.73 L42.52 129.73 L42.52 104.21 L0 104.21 L0 129.73 Z" class="st6"/><path d="M0 129.73 L42.52 129.73 L42.52 104.21 L0 104.21 L0 129.73" class="st7"/><path d="M0 104.21 L21.26 116.97 L42.52 104.21" class="st7"/></g><g id="group478-65" transform="translate(527.241,-37.2724)"><title>1-D single, open.478</title><desc>consumer</desc><g id="shape479-66"><title>Sheet.479</title><path d="M-0.75 121.18 L51.25 121.18 L51.25 129.73 L59.79 112.63 L51.25 95.53 L51.25 104.08 L-0.75 104.08 L-0.75 121.18 Z" class="st8"/><path d="M-0.75 121.18 L51.25 121.18 L51.25 129.73 L59.79 112.63 L51.25 95.53 L51.25 104.08 L-0.75 104.08" class="st9"/></g><g id="shape480-69"><title>Sheet.480</title><path d="M0 121.18 L51.25 121.18 L51.25 129.73 L59.79 112.63 L51.25 95.53 L51.25 104.08 L0 104.08" class="st10"/></g><g id="shape481-72" transform="translate(-0.847933,-8.79823)"><title>Sheet.481</title><rect width=".5" height="16.596" x="0" y="113.13" class="st11"/></g><g id="shape478-74"><rect width="32.297" height="9.6" x="13.749" y="107.83" class="st12"/><text x="13.75" y="115.03" class="st13">consumer</text></g></g></g></svg>